<?xml version="1.0" standalone="no"?>
<!DOCTYPE svg PUBLIC "-//W3C//DTD SVG 20010904//EN"
 "http://www.w3.org/TR/2001/REC-SVG-20010904/DTD/svg10.dtd">
<svg version="1.0" xmlns="http://www.w3.org/2000/svg"
 width="225.000000pt" height="225.000000pt" viewBox="0 0 225.000000 225.000000"
 preserveAspectRatio="xMidYMid meet">

<g transform="translate(0.000000,225.000000) scale(0.100000,-0.100000)"
fill="#000000" stroke="none">
<path d="M1323 2154 l-93 -65 0 -885 c0 -852 1 -885 18 -872 10 7 135 110 277
228 l259 215 -182 3 -182 2 -2 719 -3 719 -92 -64z"/>
<path d="M788 1727 l-277 -222 189 -3 190 -2 0 -735 0 -735 90 76 90 76 2 884
c2 486 1 884 -2 884 -3 -1 -130 -101 -282 -223z"/>
</g>
</svg>
