<svg width="150" height="70" viewBox="0 0 4201 1681" xmlns="http://www.w3.org/2000/svg" xmlns:xlink="http://www.w3.org/1999/xlink">

<path fill-rule="evenodd" fill="rgb(73.945618%, 73.471069%, 73.588562%)" fill-opacity="1" d="M 766.003906 258.03125 L 3456.980469 309.550781 C 3763.699219 315.429688 4009.839844 571.179688 4003.96875 877.894531 C 3998.089844 1184.605469 3742.339844 1430.75 3435.628906 1424.878906 L 744.644531 1373.351562 C 437.929688 1367.476562 191.789062 1111.722656 197.664062 805.011719 C 203.535156 498.300781 459.289062 252.148438 766.003906 258.03125 " data-index="1" style="opacity: 1;"></path>
<path fill-rule="evenodd" fill="rgb(96.264648%, 95.655823%, 95.709229%)" fill-opacity="1" d="M 755.078125 256.160156 L 3446.550781 256.160156 C 3753.320312 256.160156 4004.308594 507.160156 4004.308594 813.925781 C 4004.308594 1120.695312 3753.320312 1371.691406 3446.550781 1371.691406 L 755.078125 1371.691406 C 448.308594 1371.691406 197.3125 1120.695312 197.3125 813.925781 C 197.3125 507.160156 448.308594 256.160156 755.078125 256.160156 " data-index="2" style="opacity: 1;"></path>
<path fill-rule="nonzero" fill="rgb(13.729858%, 12.159729%, 12.548828%)" fill-opacity="1" d="M 1574.769531 1025.234375 C 1574.769531 1017.3125 1571.929688 1011.171875 1566.371094 1006.765625 C 1560.761719 1002.359375 1550.941406 997.792969 1536.941406 993.070312 C 1522.878906 988.347656 1511.441406 983.785156 1502.519531 979.378906 C 1473.5 965.105469 1459.019531 945.535156 1459.019531 920.613281 C 1459.019531 908.230469 1462.589844 897.265625 1469.828125 887.769531 C 1477.070312 878.273438 1487.300781 870.925781 1500.519531 865.628906 C 1513.691406 860.328125 1528.589844 857.703125 1545.070312 857.703125 C 1561.179688 857.703125 1575.601562 860.589844 1588.351562 866.308594 C 1601.101562 872.027344 1611.019531 880.214844 1618.101562 890.8125 C 1625.191406 901.410156 1628.699219 913.53125 1628.699219 927.121094 L 1574.921875 927.121094 C 1574.921875 917.992188 1572.089844 910.90625 1566.53125 905.871094 C 1560.910156 900.835938 1553.359375 898.316406 1543.859375 898.316406 C 1534.210938 898.316406 1526.601562 900.464844 1521.039062 904.714844 C 1515.429688 908.964844 1512.640625 914.421875 1512.640625 920.980469 C 1512.640625 926.753906 1515.738281 931.945312 1521.878906 936.617188 C 1528.019531 941.285156 1538.828125 946.113281 1554.300781 951.097656 C 1569.78125 956.082031 1582.480469 961.484375 1592.390625 967.203125 C 1616.578125 981.160156 1628.699219 1000.363281 1628.699219 1024.917969 C 1628.699219 1044.488281 1621.300781 1059.863281 1606.558594 1071.035156 C 1591.820312 1082.214844 1571.558594 1087.828125 1545.859375 1087.828125 C 1527.699219 1087.828125 1511.28125 1084.574219 1496.589844 1078.066406 C 1481.898438 1071.5625 1470.828125 1062.644531 1463.378906 1051.308594 C 1455.929688 1039.976562 1452.25 1026.914062 1452.25 1012.167969 L 1506.351562 1012.167969 C 1506.351562 1024.132812 1509.441406 1033 1515.628906 1038.664062 C 1521.828125 1044.382812 1531.898438 1047.21875 1545.859375 1047.21875 C 1554.78125 1047.21875 1561.808594 1045.277344 1567 1041.445312 C 1572.140625 1037.617188 1574.769531 1032.210938 1574.769531 1025.234375 Z M 1845.808594 977.382812 C 1845.808594 999.210938 1841.769531 1018.570312 1833.691406 1035.359375 C 1825.609375 1052.203125 1814.070312 1065.160156 1799.171875 1074.238281 C 1784.269531 1083.316406 1767.269531 1087.828125 1748.21875 1087.828125 C 1729.179688 1087.828125 1712.230469 1083.421875 1697.488281 1074.65625 C 1682.738281 1065.894531 1671.25 1053.355469 1662.960938 1037.039062 C 1654.730469 1020.773438 1650.421875 1002.042969 1650 980.898438 L 1650 968.308594 C 1650 946.375 1653.988281 927.015625 1662.070312 910.226562 C 1670.101562 893.488281 1681.640625 880.527344 1696.648438 871.398438 C 1711.648438 862.269531 1728.761719 857.703125 1747.910156 857.703125 C 1766.851562 857.703125 1783.800781 862.21875 1798.640625 871.242188 C 1813.488281 880.265625 1825.03125 893.121094 1833.320312 909.753906 C 1841.558594 926.4375 1845.710938 945.535156 1845.808594 967.101562 Z M 1790.929688 967.9375 C 1790.929688 945.640625 1787.261719 928.746094 1779.808594 917.203125 C 1772.359375 905.660156 1761.761719 899.890625 1747.910156 899.890625 C 1720.828125 899.890625 1706.558594 920.195312 1705.039062 960.855469 L 1704.878906 977.332031 C 1704.878906 999.261719 1708.5 1016.15625 1715.800781 1027.960938 C 1723.039062 1039.765625 1733.851562 1045.644531 1748.21875 1045.644531 C 1761.859375 1045.644531 1772.359375 1039.820312 1779.699219 1028.222656 C 1787.101562 1016.628906 1790.828125 999.996094 1790.929688 978.222656 Z M 2049.328125 860.855469 L 2049.328125 1007.394531 C 2049.328125 1024.027344 2045.820312 1038.402344 2038.730469 1050.523438 C 2031.648438 1062.695312 2021.519531 1071.929688 2008.300781 1078.277344 C 1995.078125 1084.628906 1979.449219 1087.828125 1961.449219 1087.828125 C 1934.171875 1087.828125 1912.710938 1080.742188 1897.019531 1066.628906 C 1881.328125 1052.464844 1873.359375 1033.105469 1873.039062 1008.496094 L 1873.039062 860.855469 L 1927.289062 860.855469 L 1927.289062 1009.546875 C 1927.921875 1034.046875 1939.308594 1046.273438 1961.449219 1046.273438 C 1972.570312 1046.273438 1981.070312 1043.175781 1986.789062 1037.039062 C 1992.511719 1030.898438 1995.398438 1020.878906 1995.398438 1007.078125 L 1995.398438 860.855469 Z M 2258.621094 902.40625 L 2191.46875 902.40625 L 2191.46875 1084.679688 L 2137.480469 1084.679688 L 2137.480469 902.40625 L 2071.53125 902.40625 L 2071.53125 860.855469 L 2258.621094 860.855469 Z M 2468.441406 1084.679688 L 2414.769531 1084.679688 L 2414.769531 991.183594 L 2335.328125 991.183594 L 2335.328125 1084.679688 L 2281.339844 1084.679688 L 2281.339844 860.855469 L 2335.328125 860.855469 L 2335.328125 949.628906 L 2414.769531 949.628906 L 2414.769531 860.855469 L 2468.441406 860.855469 Z M 2657.058594 1001.359375 L 2634.96875 1025.652344 L 2634.96875 1084.679688 L 2580.980469 1084.679688 L 2580.980469 860.855469 L 2634.96875 860.855469 L 2634.96875 959.546875 L 2653.699219 931.105469 L 2701.96875 860.855469 L 2768.660156 860.855469 L 2693.050781 959.859375 L 2768.660156 1084.679688 L 2704.75 1084.679688 Z M 2966.988281 977.382812 C 2966.988281 999.210938 2962.949219 1018.570312 2954.871094 1035.359375 C 2946.789062 1052.203125 2935.238281 1065.160156 2920.339844 1074.238281 C 2905.441406 1083.316406 2888.441406 1087.828125 2869.398438 1087.828125 C 2850.351562 1087.828125 2833.398438 1083.421875 2818.660156 1074.65625 C 2803.921875 1065.894531 2792.429688 1053.355469 2784.140625 1037.039062 C 2775.898438 1020.773438 2771.601562 1002.042969 2771.179688 980.898438 L 2771.179688 968.308594 C 2771.179688 946.375 2775.160156 927.015625 2783.238281 910.226562 C 2791.269531 893.488281 2802.808594 880.527344 2817.820312 871.398438 C 2832.828125 862.269531 2849.929688 857.703125 2869.078125 857.703125 C 2888.019531 857.703125 2904.96875 862.21875 2919.820312 871.242188 C 2934.660156 880.265625 2946.210938 893.121094 2954.5 909.753906 C 2962.738281 926.4375 2966.878906 945.535156 2966.988281 967.101562 Z M 2912.101562 967.9375 C 2912.101562 945.640625 2908.429688 928.746094 2900.980469 917.203125 C 2893.53125 905.660156 2882.929688 899.890625 2869.078125 899.890625 C 2842.011719 899.890625 2827.738281 920.195312 2826.210938 960.855469 L 2826.058594 977.332031 C 2826.058594 999.261719 2829.679688 1016.15625 2836.96875 1027.960938 C 2844.210938 1039.765625 2855.019531 1045.644531 2869.398438 1045.644531 C 2883.039062 1045.644531 2893.53125 1039.820312 2900.878906 1028.222656 C 2908.269531 1016.628906 2912 999.996094 2912.101562 978.222656 Z M 3078.011719 1005.664062 L 3048.828125 1005.664062 L 3048.828125 1084.679688 L 2994.839844 1084.679688 L 2994.839844 860.855469 L 3082.941406 860.855469 C 3109.488281 860.855469 3130.210938 866.730469 3145.21875 878.535156 C 3160.171875 890.339844 3167.621094 906.972656 3167.621094 928.484375 C 3167.621094 944.066406 3164.46875 956.972656 3158.179688 967.257812 C 3151.878906 977.488281 3142.019531 985.777344 3128.578125 992.128906 L 3175.328125 1082.371094 L 3175.328125 1084.679688 L 3117.511719 1084.679688 Z M 3048.828125 964.109375 L 3082.941406 964.109375 C 3093.171875 964.109375 3100.878906 961.433594 3106.078125 956.027344 C 3111.269531 950.625 3113.839844 943.070312 3113.839844 933.414062 C 3113.839844 923.761719 3111.21875 916.152344 3105.96875 910.644531 C 3100.78125 905.136719 3093.058594 902.40625 3082.941406 902.40625 L 3048.828125 902.40625 Z M 3339.078125 989.609375 L 3254.238281 989.609375 L 3254.238281 1043.125 L 3354.460938 1043.125 L 3354.460938 1084.679688 L 3200.25 1084.679688 L 3200.25 860.855469 L 3354.769531 860.855469 L 3354.769531 902.40625 L 3254.238281 902.40625 L 3254.238281 949.628906 L 3339.078125 949.628906 Z M 3503.519531 1042.808594 L 3429.589844 1042.808594 L 3416.679688 1084.679688 L 3359.019531 1084.679688 L 3441.128906 860.855469 L 3491.820312 860.855469 L 3574.558594 1084.679688 L 3516.578125 1084.679688 Z M 3442.5 1001.257812 L 3490.609375 1001.257812 L 3466.46875 923.550781 Z M 3442.5 1001.257812 " data-index="3" style="opacity: 1;"></path>
<path fill-rule="nonzero" fill="rgb(13.729858%, 12.159729%, 12.548828%)" fill-opacity="1" d="M 778.414062 311.429688 C 917.171875 311.429688 1042.800781 367.671875 1133.730469 458.609375 C 1224.671875 549.539062 1280.910156 675.171875 1280.910156 813.925781 C 1280.910156 952.6875 1224.671875 1078.3125 1133.730469 1169.246094 C 1042.800781 1260.183594 917.171875 1316.425781 778.414062 1316.425781 C 639.652344 1316.425781 514.027344 1260.183594 423.09375 1169.246094 C 332.15625 1078.3125 275.914062 952.6875 275.914062 813.925781 C 275.914062 675.171875 332.15625 549.539062 423.09375 458.609375 C 514.027344 367.671875 639.652344 311.429688 778.414062 311.429688 Z M 1116.761719 475.570312 C 1030.171875 388.980469 910.546875 335.429688 778.414062 335.429688 C 646.277344 335.429688 526.652344 388.980469 440.0625 475.570312 C 353.46875 562.160156 299.914062 681.789062 299.914062 813.925781 C 299.914062 946.0625 353.46875 1065.6875 440.0625 1152.277344 C 526.652344 1238.867188 646.277344 1292.425781 778.414062 1292.425781 C 910.546875 1292.425781 1030.171875 1238.867188 1116.761719 1152.277344 C 1203.359375 1065.6875 1256.910156 946.0625 1256.910156 813.925781 C 1256.910156 681.789062 1203.359375 562.160156 1116.761719 475.570312 " data-index="4"></path>
<path fill-rule="evenodd" fill="rgb(100%, 100%, 100%)" fill-opacity="1" d="M 326.914062 813.925781 C 326.914062 1063.28125 529.054688 1265.425781 778.414062 1265.425781 C 1027.769531 1265.425781 1229.910156 1063.28125 1229.910156 813.925781 C 1229.910156 564.570312 1027.769531 362.429688 778.414062 362.429688 C 529.054688 362.429688 326.914062 564.570312 326.914062 813.925781 " data-index="5" style="opacity: 1;"></path>
<path fill-rule="evenodd" fill="rgb(80.076599%, 18.431091%, 23.143005%)" fill-opacity="1" d="M 616.300781 729.65625 C 610.253906 757.144531 606.089844 770.828125 617.8125 799.214844 C 644.558594 863.953125 735.070312 875.230469 777.046875 815.386719 C 822.027344 751.261719 907.863281 764.941406 936.796875 825.183594 C 949.910156 852.476562 946.003906 866.203125 941.144531 894.898438 C 952.03125 883.335938 959.773438 845.292969 961.003906 825.730469 C 969.390625 692.511719 837.523438 596.828125 712.972656 643.128906 C 675.351562 657.109375 629.171875 694.605469 616.300781 729.65625 " data-index="6"></path>
<path fill-rule="evenodd" fill="rgb(0%, 27.830505%, 61.914062%)" fill-opacity="1" d="M 941.144531 894.898438 C 946.003906 866.203125 949.910156 852.476562 936.796875 825.183594 C 907.863281 764.941406 822.027344 751.261719 777.046875 815.386719 C 735.070312 875.230469 644.558594 863.953125 617.8125 799.214844 C 606.089844 770.828125 610.253906 757.144531 616.300781 729.65625 C 590.375 768.226562 589.984375 833.847656 607.097656 879.148438 C 624.265625 924.605469 655.828125 955.816406 694.277344 976.425781 C 738.289062 1000.015625 796.027344 1003.085938 845.679688 983.761719 C 868.992188 974.6875 886.429688 962.542969 901.710938 948.523438 C 913.570312 937.644531 934.972656 914.632812 941.144531 894.898438 " data-index="7"></path>
<path fill-rule="evenodd" fill="rgb(0%, 0%, 0%)" fill-opacity="1" d="M 398.433594 957.738281 C 402.921875 968.121094 416.011719 985.621094 422.894531 995.746094 L 497.65625 1108.839844 C 506.769531 1106.601562 515.757812 1097.714844 523.761719 1093.695312 C 520.699219 1084.933594 505.160156 1063.769531 499.144531 1054.828125 L 423.421875 941.238281 C 418.21875 943.285156 401.890625 953.855469 398.433594 957.738281 " data-index="8"></path>
<path fill-rule="evenodd" fill="rgb(0%, 0%, 0%)" fill-opacity="1" d="M 474.609375 720.867188 L 499.171875 737.839844 C 514.230469 712.773438 532.929688 686.574219 549.488281 662.269531 C 557.417969 650.628906 596.957031 594 599.453125 585.511719 C 593.46875 580.589844 580.628906 571.71875 573.699219 569.621094 L 524.0625 645.289062 C 515.089844 658.289062 507.960938 669.710938 498.988281 682.824219 C 492.511719 692.289062 478.53125 711.253906 474.609375 720.867188 " data-index="9"></path>
<path fill-rule="evenodd" fill="rgb(0%, 0%, 0%)" fill-opacity="1" d="M 398.433594 670.109375 C 401.863281 673.96875 418.277344 684.617188 423.445312 686.609375 L 498.453125 574.03125 C 504.695312 564.839844 520.742188 542.851562 523.765625 534.160156 C 515.921875 530.199219 506.433594 521.171875 497.671875 519.011719 C 490.445312 534.96875 405.039062 654.859375 398.433594 670.109375 " data-index="10"></path>
<path fill-rule="evenodd" fill="rgb(0%, 0%, 0%)" fill-opacity="1" d="M 474.152344 906.28125 C 478.515625 916.5625 492.527344 935.59375 498.984375 945.027344 C 509.054688 959.738281 570.238281 1049.894531 573.691406 1058.230469 C 580.664062 1056.152344 593.527344 1047.101562 599.453125 1042.332031 C 595.585938 1029.738281 516.1875 918.65625 499.527344 890.546875 L 474.152344 906.28125 " data-index="11"></path>
<path fill-rule="evenodd" fill="rgb(0%, 0%, 0%)" fill-opacity="1" d="M 435.992188 695.050781 L 460.511719 712.253906 L 561.9375 560.21875 L 537.46875 543.941406 L 435.992188 695.050781 " data-index="12"></path>
<path fill-rule="evenodd" fill="rgb(0%, 0%, 0%)" fill-opacity="1" d="M 994.253906 560.148438 L 1095.351562 711.707031 L 1120.039062 696.175781 L 1019.660156 544.339844 L 994.253906 560.148438 " data-index="13"></path>
<path fill-rule="evenodd" fill="rgb(0%, 0%, 0%)" fill-opacity="1" d="M 1032.46875 1093.679688 C 1040.351562 1097.65625 1049.71875 1106.664062 1058.558594 1108.839844 L 1103.769531 1039.851562 C 1096.179688 1034.710938 1085.359375 1026.660156 1078.429688 1024.035156 C 1073.238281 1029.253906 1034.699219 1087.21875 1032.46875 1093.679688 " data-index="14"></path>
<path fill-rule="evenodd" fill="rgb(0%, 0%, 0%)" fill-opacity="1" d="M 956.785156 1042.332031 C 962.925781 1047.203125 975.359375 1056.066406 982.539062 1058.222656 L 1027.660156 989.140625 C 1019.539062 983.886719 1009.710938 976.269531 1002.289062 973.316406 C 997.261719 978.535156 958.390625 1037.023438 956.785156 1042.332031 " data-index="15"></path>
<path fill-rule="evenodd" fill="rgb(0%, 0%, 0%)" fill-opacity="1" d="M 491.386719 1015.261719 L 536.546875 1083.523438 C 544.34375 1080.84375 555.335938 1071.710938 561.9375 1067.625 C 555.179688 1053.636719 527.964844 1017.8125 516.6875 998.472656 C 509.734375 1000.304688 495.027344 1010.261719 491.386719 1015.261719 " data-index="16"></path>
<path fill-rule="evenodd" fill="rgb(0%, 0%, 0%)" fill-opacity="1" d="M 1049.851562 984.808594 C 1054.210938 989.1875 1068.941406 999.351562 1075.039062 1000.289062 L 1120.238281 932.796875 L 1095.710938 915.589844 C 1089.671875 922.109375 1052.039062 978.734375 1049.851562 984.808594 " data-index="17"></path>
<path fill-rule="evenodd" fill="rgb(0%, 0%, 0%)" fill-opacity="1" d="M 1032.460938 534.148438 C 1034.738281 540.691406 1073.210938 598.578125 1078.429688 603.808594 C 1085.269531 601.210938 1096.300781 593.101562 1103.230469 588.339844 L 1058.109375 519.308594 C 1049.671875 521.210938 1040.398438 530.179688 1032.460938 534.148438 " data-index="18"></path>
<path fill-rule="evenodd" fill="rgb(0%, 0%, 0%)" fill-opacity="1" d="M 956.765625 585.511719 C 958.359375 590.820312 997.257812 649.339844 1002.289062 654.550781 C 1009.648438 651.609375 1019.558594 643.960938 1027.121094 639.070312 L 981.984375 569.988281 C 975.523438 571.71875 962.882812 580.550781 956.765625 585.511719 " data-index="19"></path>
<path fill-rule="evenodd" fill="rgb(0%, 0%, 0%)" fill-opacity="1" d="M 994.285156 1067.625 L 1018.761719 1083.902344 L 1065.078125 1015.421875 C 1061.140625 1010.230469 1046.550781 1000.328125 1039.539062 998.472656 C 1033.078125 1009.46875 1024.011719 1022.527344 1016.71875 1033.089844 C 1009.75 1043.199219 999.128906 1057.597656 994.285156 1067.625 " data-index="20"></path>
<path fill-rule="evenodd" fill="rgb(0%, 0%, 0%)" fill-opacity="1" d="M 1088.121094 1010.183594 L 1111.820312 1026.707031 L 1158.390625 958.148438 L 1134.460938 941.304688 C 1129.839844 944.542969 1090.570312 1002.65625 1088.121094 1010.183594 " data-index="21"></path>
<path fill-rule="evenodd" fill="rgb(0%, 0%, 0%)" fill-opacity="1" d="M 1087.710938 617.050781 C 1090.988281 626.511719 1124.320312 671.878906 1132.78125 686.617188 C 1138.101562 684.519531 1154.28125 674.078125 1157.761719 670.109375 L 1112.878906 601.410156 L 1087.710938 617.050781 " data-index="22"></path>
<path fill-rule="evenodd" fill="rgb(0%, 0%, 0%)" fill-opacity="1" d="M 1012.03125 959.429688 L 1035.78125 976.109375 L 1082.25 907.398438 L 1057.050781 889.992188 C 1050.351562 901.339844 1041.800781 913.507812 1034.589844 924.019531 C 1029.78125 931.019531 1014.46875 952.128906 1012.03125 959.429688 " data-index="23"></path>
<path fill-rule="evenodd" fill="rgb(0%, 0%, 0%)" fill-opacity="1" d="M 1011.550781 667.738281 C 1014.5 675.761719 1029.109375 695.882812 1033.890625 702.828125 C 1041.589844 714.011719 1050.171875 726.171875 1056.679688 737.3125 L 1082.078125 721.570312 L 1036.601562 651.941406 L 1011.550781 667.738281 " data-index="24"></path>
<path fill-rule="evenodd" fill="rgb(0%, 0%, 0%)" fill-opacity="1" d="M 436.203125 931.671875 L 481.609375 1001.144531 C 487.546875 998.503906 501.527344 989.726562 506.351562 984.808594 L 461.304688 915.847656 L 436.203125 931.671875 " data-index="25"></path>
<path fill-rule="nonzero" fill="rgb(13.729858%, 12.159729%, 12.548828%)" fill-opacity="1" d="M 1505.980469 611.289062 L 1539.191406 714.816406 L 1572.289062 611.289062 L 1619.519531 611.289062 L 1619.519531 760.09375 L 1583.550781 760.09375 L 1583.550781 725.351562 L 1587.011719 654.230469 L 1551.050781 760.09375 L 1527.328125 760.09375 L 1491.261719 654.121094 L 1494.75 725.351562 L 1494.75 760.09375 L 1458.851562 760.09375 L 1458.851562 611.289062 Z M 1728.660156 732.257812 L 1679.511719 732.257812 L 1670.929688 760.09375 L 1632.601562 760.09375 L 1687.191406 611.289062 L 1720.878906 611.289062 L 1775.890625 760.09375 L 1737.351562 760.09375 Z M 1688.101562 704.632812 L 1720.078125 704.632812 L 1704.039062 652.96875 Z M 1786.710938 760.09375 L 1786.710938 611.289062 L 1834.628906 611.289062 C 1847.78125 611.289062 1859.609375 614.25 1870.109375 620.21875 C 1880.609375 626.179688 1888.800781 634.589844 1894.660156 645.46875 C 1900.558594 656.351562 1903.558594 668.53125 1903.628906 682.027344 L 1903.628906 688.863281 C 1903.628906 702.46875 1900.730469 714.710938 1894.980469 725.488281 C 1889.21875 736.304688 1881.128906 744.746094 1870.671875 750.847656 C 1860.199219 756.953125 1848.550781 760.023438 1835.679688 760.09375 Z M 1822.601562 638.910156 L 1822.601562 732.46875 L 1835.050781 732.46875 C 1845.339844 732.46875 1853.261719 728.804688 1858.769531 721.480469 C 1864.28125 714.152344 1867.039062 703.269531 1867.039062 688.796875 L 1867.039062 682.378906 C 1867.039062 667.96875 1864.28125 657.160156 1858.769531 649.871094 C 1853.261719 642.578125 1845.199219 638.910156 1834.628906 638.910156 Z M 2014.308594 696.886719 L 1957.910156 696.886719 L 1957.910156 732.46875 L 2024.53125 732.46875 L 2024.53125 760.09375 L 1922.011719 760.09375 L 1922.011719 611.289062 L 2024.738281 611.289062 L 2024.738281 638.910156 L 1957.910156 638.910156 L 1957.910156 670.308594 L 2014.308594 670.308594 Z M 2129.449219 760.09375 L 2093.699219 760.09375 L 2093.699219 611.289062 L 2129.449219 611.289062 Z M 2278.640625 760.09375 L 2242.988281 760.09375 L 2190.25 667.480469 L 2190.25 760.09375 L 2154.390625 760.09375 L 2154.390625 611.289062 L 2190.25 611.289062 L 2242.890625 703.898438 L 2242.890625 611.289062 L 2278.640625 611.289062 L 2278.640625 760.09375 " data-index="26" style="opacity: 1;"></path>
</svg>