<?xml version="1.0" standalone="no"?>
<!DOCTYPE svg PUBLIC "-//W3C//DTD SVG 20010904//EN"
 "http://www.w3.org/TR/2001/REC-SVG-20010904/DTD/svg10.dtd">
<svg version="1.0" xmlns="http://www.w3.org/2000/svg"
 width="30.000000pt" height="30.000000pt" viewBox="0 0 40.000000 40.000000"
 preserveAspectRatio="xMidYMid meet">

<g transform="translate(0.000000,2071.000000) scale(0.100000,-0.100000)"
fill="#000000" stroke="none">
<path d="M42835 16301 c-46 -21 -95 -73 -126 -134 -23 -44 -83 -214 -254 -714
-57 -166 -112 -317 -123 -335 -50 -80 -138 -135 -230 -144 -26 -2 -123 -11
-217 -19 -385 -35 -779 -88 -1090 -145 -176 -33 -536 -98 -800 -145 -1053
-188 -1249 -226 -1300 -249 -103 -47 -148 -127 -147 -265 0 -99 23 -185 77
-296 54 -109 248 -371 298 -402 80 -50 186 -54 337 -14 158 42 1566 351 1775
390 240 45 448 76 565 86 41 3 108 13 149 21 163 35 201 19 201 -85 -1 -127
-38 -332 -233 -1296 -485 -2391 -643 -3301 -771 -4465 -103 -928 -159 -2012
-127 -2445 17 -224 69 -687 86 -763 71 -307 348 -446 717 -358 176 42 219 67
239 140 13 49 -2 194 -32 304 -19 66 -19 84 -10 230 6 86 15 283 21 437 28
770 47 974 140 1556 282 1756 671 3546 1336 6134 159 618 205 743 293 802 50
34 91 42 261 53 85 6 407 31 715 55 825 66 1415 110 2005 151 668 47 1117 54
1737 30 230 -10 477 -18 548 -19 139 -2 232 13 242 41 8 21 -15 162 -29 179
-15 19 -234 123 -328 157 -188 68 -457 93 -1150 105 -372 6 -386 7 -427 29
-52 27 -92 85 -107 155 -11 46 -17 54 -50 71 -37 18 -44 18 -309 0 -238 -16
-421 -18 -1467 -19 -657 -1 -1219 2 -1249 7 -77 11 -101 36 -101 107 0 30 18
129 40 220 51 215 63 298 50 357 -23 103 -64 141 -253 242 -146 78 -229 109
-452 171 -82 23 -192 55 -243 72 -106 33 -151 36 -207 10z"/>
<path d="M54195 13603 c-182 -7 -458 -36 -570 -59 -530 -111 -1121 -302 -1760
-571 -110 -46 -218 -86 -240 -89 -56 -8 -99 24 -144 107 -51 94 -85 135 -139
166 -95 56 -243 25 -327 -69 -55 -60 -107 -178 -209 -471 -24 -71 -54 -140
-67 -153 -17 -18 -152 -84 -172 -84 -3 0 -13 29 -22 64 -25 93 -17 213 25 341
26 80 32 117 32 186 1 200 -71 284 -262 307 -136 16 -205 -13 -254 -110 -74
-148 -211 -569 -322 -988 -36 -134 -78 -271 -95 -305 -50 -103 -150 -224 -367
-447 -446 -460 -722 -790 -812 -973 -62 -127 -83 -220 -77 -340 11 -210 104
-361 324 -526 117 -88 176 -149 211 -219 37 -76 43 -211 12 -320 -11 -41 -32
-133 -46 -205 -13 -71 -78 -400 -144 -730 -174 -873 -275 -1439 -364 -2035
-88 -588 -176 -1400 -176 -1631 0 -273 140 -420 415 -436 81 -4 94 -3 135 19
52 28 93 84 135 182 16 37 45 84 65 104 l37 37 11 -40 c19 -69 157 -245 192
-245 35 0 138 62 192 114 63 61 72 89 83 236 9 129 80 499 244 1275 121 572
193 869 305 1260 24 83 49 173 56 200 16 70 34 95 69 95 37 0 47 -8 549 -447
282 -246 1142 -944 1802 -1462 319 -251 377 -286 475 -285 77 0 139 27 208 92
68 64 104 82 191 93 144 19 212 70 336 252 49 72 150 177 170 177 5 0 1 21 -8
47 -31 85 -104 150 -427 384 -73 53 -402 331 -755 638 -344 300 -809 703
-1035 897 -225 194 -423 372 -439 395 -40 57 -46 125 -16 173 33 55 129 117
321 210 96 46 253 122 349 168 273 132 1136 655 1625 986 661 447 1134 821
1665 1317 309 289 508 520 700 810 114 173 164 287 189 429 22 122 4 242 -52
361 -66 137 -200 248 -364 299 -190 60 -233 97 -287 252 -143 408 -527 594
-1171 567z m358 -453 c75 -11 146 -24 157 -30 33 -18 25 -61 -24 -127 -93
-123 -180 -185 -306 -218 -86 -22 -1118 -364 -1152 -381 -28 -14 -173 -172
-165 -180 2 -2 112 30 243 71 461 146 1054 315 1105 315 14 0 40 -3 57 -6 l31
-6 -16 -42 c-9 -22 -24 -54 -34 -69 -21 -35 -391 -413 -479 -488 -88 -76
-1868 -1440 -2650 -2031 -201 -152 -376 -288 -390 -303 -24 -26 -92 -65 -135
-79 -19 -6 -20 -2 -17 96 3 95 13 137 143 618 77 283 178 662 224 843 94 365
114 414 205 507 59 60 129 105 250 159 208 93 871 434 985 506 28 17 93 67
145 111 119 99 181 138 256 164 106 37 372 100 421 100 54 0 166 32 260 74 47
21 66 36 77 61 22 46 20 51 -15 64 -51 18 -70 14 -283 -49 -270 -79 -897 -257
-1295 -366 l-325 -89 -53 -49 -53 -48 0 33 c0 49 36 113 79 142 39 26 120 57
147 57 9 0 178 63 377 139 866 333 1174 425 1687 506 182 29 319 27 543 -5z
m1055 -569 c55 -28 111 -88 138 -145 61 -130 14 -285 -171 -561 -164 -246
-349 -434 -780 -790 -827 -683 -983 -807 -1062 -846 -35 -17 -67 -29 -72 -27
-19 7 399 451 903 958 286 289 539 551 560 583 53 77 61 149 23 206 l-26 39
37 16 c20 9 48 26 62 36 21 16 22 20 7 20 -16 0 -15 4 8 43 14 23 40 69 57
102 17 33 34 61 39 63 5 2 16 27 24 56 21 70 9 102 -45 124 -22 9 -40 19 -40
22 0 7 148 96 180 109 42 16 118 13 158 -8z m-310 -209 l34 -62 -71 0 c-39 0
-71 3 -71 6 0 20 55 124 63 121 6 -2 26 -31 45 -65z m-169 -209 c-16 -60 -28
-121 -29 -136 0 -28 -1 -29 -42 -22 -47 7 -88 29 -88 46 0 23 26 58 103 137
45 45 82 82 83 82 0 0 -12 -48 -27 -107z m-4823 -1380 c7 -37 2 -60 -263
-1148 -153 -629 -157 -641 -192 -682 -34 -39 -36 -40 -44 -20 -14 34 -2 122
53 402 64 323 120 579 217 985 41 173 80 346 86 384 10 66 13 70 61 106 45 34
52 36 63 22 7 -8 16 -31 19 -49z m-786 -3313 c0 -53 -2 -60 -20 -60 -16 0 -20
7 -20 35 0 30 23 85 36 85 2 0 4 -27 4 -60z m-85 -570 c3 -49 2 -66 -4 -49 -4
14 -11 61 -14 105 -5 57 -4 71 3 49 5 -16 12 -64 15 -105z m-5 -124 c0 -1 -5
-17 -11 -35 -6 -18 -24 -94 -39 -169 l-28 -137 -26 55 c-33 70 -36 160 -6 205
26 40 110 102 110 81z m-113 -398 c-11 -9 -23 -52 -37 -133 -12 -66 -26 -124
-30 -129 -12 -12 -40 11 -40 33 0 9 5 22 10 27 6 6 17 46 25 89 16 80 42 125
74 125 12 0 12 -2 -2 -12z m-120 -610 c-3 -8 -6 -5 -6 6 -1 11 2 17 5 13 3 -3
4 -12 1 -19z m-47 -242 c-12 -64 -27 -116 -32 -116 -6 0 -8 18 -4 48 8 56 47
194 53 188 3 -2 -5 -56 -17 -120z m-118 -798 c-9 -9 -12 -4 -11 23 0 32 1 33
11 11 8 -17 8 -26 0 -34z"/>
<path d="M54134 12944 c-68 -35 -72 -42 -33 -49 25 -4 58 3 123 28 l88 34 -38
6 c-66 11 -89 8 -140 -19z"/>
<path d="M53036 12203 c-3 -4 -25 -10 -49 -14 l-42 -6 46 -2 c33 -1 49 3 53
14 6 16 3 19 -8 8z"/>
<path d="M52701 12114 c0 -11 3 -14 6 -6 3 7 2 16 -1 19 -3 4 -6 -2 -5 -13z"/>
<path d="M38387 12676 c-93 -34 -118 -87 -272 -553 -164 -500 -192 -603 -274
-1001 -354 -1714 -568 -3125 -666 -4382 -43 -555 -47 -691 -42 -1225 6 -527
14 -664 47 -835 25 -129 53 -199 102 -254 82 -94 133 -107 443 -115 l250 -6
60 -32 c87 -45 120 -49 175 -21 52 27 85 64 445 503 144 176 313 379 375 450
163 187 588 607 1090 1078 l435 409 49 94 49 95 -53 54 c-87 88 -218 145 -333
145 -46 0 -52 3 -89 45 -48 54 -84 75 -133 75 -50 0 -90 -23 -165 -96 -67 -64
-822 -693 -1259 -1048 -239 -194 -271 -216 -340 -231 l-34 -7 6 108 c6 130 76
545 186 1109 44 226 139 734 211 1130 268 1473 501 2668 580 2980 22 88 88
329 145 535 57 206 107 398 110 427 9 71 -15 152 -60 202 -76 84 -487 266
-760 337 -161 42 -227 49 -278 30z m-168 -7753 c1 -18 -3 -33 -9 -33 -5 0 -10
24 -9 53 0 38 3 47 9 32 5 -11 9 -35 9 -52z"/>
<path d="M36540 12086 c-289 -62 -500 -236 -653 -542 -20 -39 -78 -178 -130
-310 -148 -373 -250 -587 -390 -819 -179 -295 -594 -940 -1222 -1900 -158
-242 -356 -546 -440 -675 -228 -353 -775 -1182 -794 -1204 -17 -20 -121 -89
-126 -84 -2 2 -15 30 -30 63 l-26 60 21 255 c54 660 89 956 170 1441 122 725
357 1676 662 2679 50 163 58 182 115 260 98 136 103 188 25 262 -72 69 -308
201 -418 234 -94 29 -283 24 -397 -10 -264 -79 -485 -263 -607 -506 -53 -105
-222 -629 -355 -1100 -104 -368 -317 -1192 -404 -1560 -170 -725 -271 -1417
-274 -1875 -1 -261 59 -751 127 -1025 61 -245 185 -408 381 -501 146 -70 271
-89 585 -89 365 0 586 46 834 173 177 90 349 236 467 397 322 436 364 504 844
1345 410 718 551 956 583 983 35 29 109 82 116 82 21 0 11 -189 -53 -1010
-121 -1547 -136 -1784 -127 -1995 6 -167 18 -274 61 -565 54 -361 63 -388 155
-481 77 -78 128 -95 284 -92 65 1 164 7 220 13 124 13 535 69 557 76 9 2 26
26 37 52 44 103 51 172 67 622 17 467 36 797 60 1005 67 573 274 2014 466
3230 170 1079 164 1052 352 1785 l121 475 0 145 c0 159 -12 224 -64 359 -70
181 -181 300 -315 337 -83 22 -395 29 -485 10z"/>
<path d="M39605 11904 c-65 -98 -75 -123 -95 -233 -27 -146 -119 -568 -219
-1003 -85 -369 -106 -476 -255 -1298 -53 -289 -108 -592 -124 -675 -26 -136
-28 -161 -22 -268 5 -65 10 -120 12 -122 2 -3 21 30 41 73 31 66 52 149 143
567 118 550 293 1337 475 2135 104 458 122 551 126 646 5 105 4 116 -20 168
-14 31 -27 56 -29 56 -2 -1 -16 -21 -33 -46z"/>
<path d="M30682 11875 c-56 -24 -123 -103 -573 -665 -1175 -1468 -1446 -1853
-2379 -3385 -161 -264 -302 -494 -312 -512 -11 -18 -41 -46 -68 -62 l-49 -30
-6 54 c-4 29 -4 75 -1 102 173 1382 230 1881 332 2888 41 406 45 469 35 532
-29 192 -134 286 -433 390 -224 78 -318 64 -443 -64 -78 -80 -580 -820 -772
-1138 -33 -55 -158 -275 -278 -490 -890 -1596 -913 -1635 -958 -1658 -28 -14
-41 -16 -56 -7 -28 14 -45 49 -43 85 1 23 -3 17 -17 -24 -10 -29 -25 -58 -32
-63 -38 -25 -74 -40 -135 -54 -37 -8 -80 -22 -95 -29 l-27 -15 -7 104 c-4 57
-4 118 0 137 11 54 317 1337 421 1769 53 217 160 654 240 970 79 316 146 593
150 616 8 51 0 59 -114 121 -172 94 -365 163 -454 163 -63 0 -165 -83 -221
-181 -31 -54 -276 -739 -351 -984 -104 -336 -247 -948 -340 -1455 -156 -854
-255 -1701 -391 -3350 -14 -173 -37 -403 -50 -510 -31 -245 -47 -464 -39 -538
14 -137 45 -254 95 -354 33 -65 53 -75 122 -63 23 3 166 10 317 14 284 8 316
13 373 55 48 35 74 94 146 327 368 1193 965 2480 1940 4179 118 206 229 402
246 436 40 78 97 152 139 180 l34 23 12 -44 c16 -57 7 -191 -50 -741 -32 -303
-92 -1351 -155 -2678 -26 -549 -20 -626 58 -728 118 -154 425 -154 575 0 60
62 88 116 250 477 221 494 325 697 477 925 113 170 197 273 340 416 106 107
135 145 248 320 71 110 237 377 369 594 260 429 523 852 601 968 58 87 92 107
153 91 22 -6 40 -12 42 -13 1 -2 -16 -78 -38 -169 -119 -490 -218 -1120 -264
-1677 -36 -433 -41 -563 -41 -1175 1 -832 18 -1102 76 -1223 53 -109 197 -231
272 -232 55 0 198 93 322 211 86 82 89 93 55 201 -11 34 -20 64 -20 66 0 1 10
2 22 2 33 0 100 -77 127 -148 13 -33 32 -74 42 -91 17 -28 145 -141 160 -141
3 0 28 37 55 82 l49 83 6 315 5 315 82 500 c340 2069 577 3165 1006 4657 173
602 179 625 180 738 1 113 -18 177 -70 238 -42 49 -136 98 -216 112 -32 5 -84
15 -115 20 -72 13 -165 56 -261 121 -147 100 -227 126 -300 94z m-2105 -3931
c-3 -3 -12 -4 -19 -1 -8 3 -5 6 6 6 11 1 17 -2 13 -5z m1604 -405 l-10 -24 0
26 c-1 14 2 29 6 33 12 12 14 -9 4 -35z m-1963 -329 c5 -41 8 -76 7 -78 -2 -2
-29 -6 -60 -9 l-57 -6 7 34 c4 19 23 65 43 103 41 79 44 77 60 -44z m1900
-347 c-3 -73 -9 -97 -32 -140 -16 -28 -42 -64 -58 -80 l-30 -28 14 30 c16 32
82 231 92 278 12 53 18 26 14 -60z m-72 -402 c26 -75 25 -91 -7 -91 -17 0 -19
7 -19 58 0 31 -4 73 -10 91 -18 62 9 18 36 -58z m-11 -764 c0 -337 -3 -401
-17 -459 -19 -74 -66 -181 -92 -213 -16 -19 -17 -16 -12 65 4 47 18 280 32
519 26 452 32 495 71 485 17 -5 18 -30 18 -397z"/>
<path d="M45515 11555 c-250 -41 -488 -143 -703 -301 -102 -75 -415 -390 -526
-529 -176 -221 -327 -466 -493 -805 -356 -728 -583 -1490 -682 -2297 -26 -210
-39 -508 -43 -978 l-3 -380 93 -250 c217 -584 270 -714 348 -844 138 -232 329
-419 540 -529 102 -52 262 -106 379 -127 200 -36 506 -29 745 16 329 64 905
327 1414 646 360 226 855 611 1081 840 70 72 129 174 123 214 -7 53 -209 115
-352 107 l-72 -3 -200 -151 c-382 -288 -691 -481 -1104 -687 -272 -136 -473
-225 -710 -315 -260 -98 -443 -162 -464 -162 -16 0 -34 18 -63 63 -92 140
-142 311 -180 618 -14 117 -18 220 -18 544 0 468 0 465 102 765 66 194 96 284
127 391 24 83 83 168 147 211 105 72 173 87 454 98 121 5 485 27 809 49 l589
40 40 28 c22 15 49 40 59 54 27 35 27 103 1 154 -24 46 -95 120 -137 142 -42
22 -99 20 -941 -33 -307 -19 -480 -15 -542 11 l-43 18 0 66 0 66 156 290 c279
519 513 928 660 1151 44 68 107 146 161 200 96 96 514 448 566 476 20 11 55
17 92 18 66 0 134 -29 262 -110 120 -77 250 -100 362 -63 48 15 54 15 93 -1
102 -42 128 -49 386 -104 22 -4 22 -4 -9 64 -139 308 -134 303 -584 603 -711
475 -1029 636 -1402 712 -133 27 -395 34 -518 14z m-360 -1942 c-118 -412
-337 -1140 -371 -1237 -45 -126 -98 -232 -119 -240 -9 -3 -34 -6 -54 -6 -35 0
-40 4 -64 49 l-27 49 40 133 c191 629 355 1012 583 1367 33 51 62 91 64 88 2
-2 -21 -93 -52 -203z m-742 -2050 c-4 -30 -212 -2100 -214 -2124 -2 -33 -29
118 -46 261 -24 210 -24 593 1 815 32 293 151 957 181 1015 15 30 51 60 70 60
7 0 10 -12 8 -27z"/>
<path d="M12339 11502 c-58 -32 -126 -71 -151 -87 l-45 -28 -6 -191 c-4 -105
-11 -307 -17 -448 -8 -177 -8 -312 -1 -436 20 -343 57 -507 190 -837 49 -121
101 -260 116 -308 38 -121 32 -180 -40 -412 -101 -324 -114 -395 -115 -605 0
-147 14 -283 61 -570 61 -376 85 -622 77 -776 l-4 -84 102 -40 c130 -51 240
-77 384 -92 63 -6 122 -17 130 -23 37 -29 45 -29 25 0 -197 299 -353 701 -416
1069 -27 155 -36 478 -20 637 38 364 164 728 356 1029 23 36 44 70 48 76 4 7
-25 31 -76 62 -241 149 -408 331 -528 577 -183 376 -187 876 -10 1403 26 78
47 142 47 142 -1 0 -49 -26 -107 -58z"/>
<path d="M19365 8592 c-269 -295 -691 -510 -1205 -612 -264 -52 -404 -65 -745
-65 -170 0 -323 4 -338 8 l-28 8 7 -48 c12 -79 8 -599 -5 -728 -60 -584 -222
-986 -515 -1281 -158 -159 -306 -251 -509 -319 -89 -29 -137 -39 -294 -61 -28
-4 -32 -9 -36 -42 l-4 -37 -1 38 -2 39 -47 -48 c-108 -108 -255 -194 -410
-240 -119 -35 -324 -44 -463 -20 -298 52 -613 219 -955 505 -189 159 -433 413
-573 596 l-23 30 6 -95 c31 -493 250 -946 670 -1390 174 -185 263 -263 400
-355 475 -318 1138 -432 1890 -324 77 11 172 27 213 36 l73 16 -69 18 c-123
31 -252 109 -347 210 -43 46 -40 44 22 -13 39 -36 102 -84 140 -107 63 -37
203 -91 236 -91 8 0 40 -11 71 -25 101 -45 259 -96 401 -130 291 -70 507 -90
870 -82 549 13 915 89 1340 278 692 309 1170 855 1340 1528 50 200 57 265 62
543 16 895 -181 1614 -548 2002 -149 157 -300 250 -498 305 l-66 18 -60 -65z
m-3658 -3269 c-3 -10 -5 -2 -5 17 0 19 2 27 5 18 2 -10 2 -26 0 -35z m10 -75
c-3 -7 -5 -2 -5 12 0 14 2 19 5 13 2 -7 2 -19 0 -25z m10 -70 c-3 -7 -5 -2 -5
12 0 14 2 19 5 13 2 -7 2 -19 0 -25z m10 -50 c-3 -8 -6 -5 -6 6 -1 11 2 17 5
13 3 -3 4 -12 1 -19z m10 -50 c-3 -8 -6 -5 -6 6 -1 11 2 17 5 13 3 -3 4 -12 1
-19z"/>
<path d="M38830 7991 c0 -48 13 -59 29 -25 15 34 14 51 -5 58 -24 9 -24 9 -24
-33z"/>
</g>
</svg>
