<?xml version="1.0" standalone="no"?>
<!DOCTYPE svg PUBLIC "-//W3C//DTD SVG 20010904//EN"
 "http://www.w3.org/TR/2001/REC-SVG-20010904/DTD/svg10.dtd">
<svg version="1.0" xmlns="http://www.w3.org/2000/svg"
 width="16.000000pt" height="18.000000pt" viewBox="0 0 35.000000 30.000000"
 preserveAspectRatio="xMidYMid meet">

<g transform="translate(0.000000,32.000000) scale(0.100000,-0.100000)"
fill="#000000" stroke="none">
<path d="M10 160 l0 -110 150 0 150 0 0 110 0 110 -150 0 -150 0 0 -110z m266
92 c-2 -4 -29 -25 -60 -46 l-55 -38 -61 43 c-33 23 -60 43 -60 45 0 2 54 4
121 4 66 0 118 -4 115 -8z m-183 -50 c26 -19 47 -37 47 -41 0 -7 -70 -62 -107
-84 -10 -6 -13 10 -13 83 0 70 3 89 13 84 6 -5 33 -23 60 -42z m207 -47 l0
-95 -72 0 -73 0 38 27 c20 14 37 30 37 35 0 4 -22 -8 -49 -28 -43 -30 -56 -35
-97 -32 l-47 3 129 92 c71 51 130 92 132 93 1 0 2 -43 2 -95z"/>
</g>
</svg>
