<?xml version="1.0" encoding="UTF-8"?>
<svg xmlns="http://www.w3.org/2000/svg" xmlns:xlink="http://www.w3.org/1999/xlink" width="30px" height="30px" viewBox="0 0 30 30" version="1.1">
<g id="surface1">
<path style=" stroke:none;fill-rule:nonzero;fill:rgb(93.333334%,77.64706%,0%);fill-opacity:1;" d="M 11.367188 1.289062 C 11.527344 1.433594 11.59375 1.523438 11.628906 1.742188 C 11.589844 2.015625 11.453125 2.164062 11.28125 2.375 C 11.214844 2.460938 11.148438 2.542969 11.082031 2.628906 C 11.035156 2.691406 11.035156 2.691406 10.988281 2.753906 C 10.777344 3.03125 10.601562 3.328125 10.429688 3.632812 C 10.394531 3.699219 10.394531 3.699219 10.355469 3.765625 C 8.789062 6.554688 8.460938 9.738281 9.300781 12.8125 C 9.839844 14.679688 10.855469 16.296875 12.1875 17.695312 C 12.234375 17.746094 12.28125 17.796875 12.328125 17.847656 C 14.386719 19.980469 17.402344 21.117188 20.328125 21.171875 C 22.828125 21.179688 25.386719 20.445312 27.382812 18.910156 C 27.425781 18.875 27.464844 18.84375 27.511719 18.808594 C 27.589844 18.746094 27.671875 18.683594 27.75 18.617188 C 27.929688 18.476562 28.027344 18.402344 28.257812 18.371094 C 28.476562 18.40625 28.566406 18.46875 28.710938 18.632812 C 28.816406 19.011719 28.714844 19.265625 28.570312 19.613281 C 28.550781 19.667969 28.527344 19.722656 28.507812 19.777344 C 27.757812 21.636719 26.6875 23.214844 25.3125 24.667969 C 25.25 24.734375 25.25 24.734375 25.1875 24.800781 C 24.878906 25.117188 24.542969 25.390625 24.199219 25.664062 C 24.117188 25.730469 24.117188 25.730469 24.03125 25.800781 C 21.984375 27.4375 19.417969 28.453125 16.816406 28.710938 C 16.753906 28.71875 16.691406 28.722656 16.628906 28.730469 C 14.621094 28.90625 12.628906 28.648438 10.722656 28.007812 C 10.683594 27.996094 10.644531 27.980469 10.601562 27.96875 C 9.136719 27.46875 7.757812 26.707031 6.5625 25.722656 C 6.503906 25.675781 6.445312 25.628906 6.386719 25.582031 C 5.542969 24.902344 4.75 24.117188 4.113281 23.242188 C 4.042969 23.144531 3.972656 23.050781 3.898438 22.953125 C 2.425781 20.996094 1.53125 18.546875 1.289062 16.113281 C 1.28125 16.050781 1.277344 15.988281 1.269531 15.921875 C 0.933594 12.082031 2.191406 8.371094 4.648438 5.433594 C 5.195312 4.789062 5.777344 4.210938 6.445312 3.691406 C 6.480469 3.664062 6.519531 3.632812 6.554688 3.601562 C 7.121094 3.15625 7.691406 2.75 8.320312 2.402344 C 8.363281 2.378906 8.402344 2.355469 8.445312 2.332031 C 10.621094 1.105469 10.621094 1.105469 11.367188 1.289062 Z M 11.367188 1.289062 "/>
<path style=" stroke:none;fill-rule:nonzero;fill:rgb(3.529412%,3.137255%,0%);fill-opacity:1;" d="M 11.367188 1.289062 C 11.527344 1.433594 11.59375 1.523438 11.628906 1.742188 C 11.589844 2.015625 11.453125 2.164062 11.28125 2.375 C 11.214844 2.460938 11.148438 2.542969 11.082031 2.628906 C 11.035156 2.691406 11.035156 2.691406 10.988281 2.753906 C 10.777344 3.03125 10.601562 3.328125 10.429688 3.632812 C 10.394531 3.699219 10.394531 3.699219 10.355469 3.765625 C 8.789062 6.554688 8.460938 9.738281 9.300781 12.8125 C 9.839844 14.679688 10.855469 16.296875 12.1875 17.695312 C 12.234375 17.746094 12.28125 17.796875 12.328125 17.847656 C 14.386719 19.980469 17.402344 21.117188 20.328125 21.171875 C 22.828125 21.179688 25.386719 20.445312 27.382812 18.910156 C 27.425781 18.875 27.464844 18.84375 27.511719 18.808594 C 27.589844 18.746094 27.671875 18.683594 27.75 18.617188 C 27.929688 18.476562 28.027344 18.402344 28.257812 18.371094 C 28.476562 18.40625 28.566406 18.46875 28.710938 18.632812 C 28.816406 19.011719 28.714844 19.265625 28.570312 19.613281 C 28.550781 19.667969 28.527344 19.722656 28.507812 19.777344 C 27.757812 21.636719 26.6875 23.214844 25.3125 24.667969 C 25.25 24.734375 25.25 24.734375 25.1875 24.800781 C 24.878906 25.117188 24.542969 25.390625 24.199219 25.664062 C 24.117188 25.730469 24.117188 25.730469 24.03125 25.800781 C 21.984375 27.4375 19.417969 28.453125 16.816406 28.710938 C 16.753906 28.71875 16.691406 28.722656 16.628906 28.730469 C 14.621094 28.90625 12.628906 28.648438 10.722656 28.007812 C 10.683594 27.996094 10.644531 27.980469 10.601562 27.96875 C 9.136719 27.46875 7.757812 26.707031 6.5625 25.722656 C 6.503906 25.675781 6.445312 25.628906 6.386719 25.582031 C 5.542969 24.902344 4.75 24.117188 4.113281 23.242188 C 4.042969 23.144531 3.972656 23.050781 3.898438 22.953125 C 2.425781 20.996094 1.53125 18.546875 1.289062 16.113281 C 1.28125 16.050781 1.277344 15.988281 1.269531 15.921875 C 0.933594 12.082031 2.191406 8.371094 4.648438 5.433594 C 5.195312 4.789062 5.777344 4.210938 6.445312 3.691406 C 6.480469 3.664062 6.519531 3.632812 6.554688 3.601562 C 7.121094 3.15625 7.691406 2.75 8.320312 2.402344 C 8.363281 2.378906 8.402344 2.355469 8.445312 2.332031 C 10.621094 1.105469 10.621094 1.105469 11.367188 1.289062 Z M 6.855469 4.628906 C 6.808594 4.667969 6.765625 4.707031 6.714844 4.746094 C 6.566406 4.882812 6.417969 5.019531 6.269531 5.15625 C 6.238281 5.1875 6.203125 5.21875 6.171875 5.25 C 5.589844 5.796875 5.09375 6.382812 4.628906 7.03125 C 4.601562 7.066406 4.578125 7.101562 4.550781 7.136719 C 2.621094 9.792969 1.816406 13.308594 2.296875 16.550781 C 2.335938 16.769531 2.378906 16.988281 2.429688 17.203125 C 2.457031 17.332031 2.484375 17.464844 2.507812 17.59375 C 2.722656 18.683594 3.15625 19.777344 3.691406 20.753906 C 3.753906 20.867188 3.8125 20.980469 3.875 21.09375 C 4.175781 21.65625 4.527344 22.171875 4.921875 22.675781 C 4.964844 22.730469 5.007812 22.785156 5.050781 22.84375 C 6.179688 24.261719 7.542969 25.394531 9.140625 26.25 C 9.179688 26.273438 9.21875 26.292969 9.261719 26.316406 C 12.15625 27.878906 15.734375 28.246094 18.894531 27.328125 C 18.984375 27.300781 19.070312 27.273438 19.160156 27.246094 C 19.207031 27.230469 19.25 27.21875 19.296875 27.203125 C 21.246094 26.601562 22.96875 25.546875 24.433594 24.140625 C 24.484375 24.09375 24.484375 24.09375 24.535156 24.046875 C 25.039062 23.5625 25.484375 23.0625 25.898438 22.5 C 25.941406 22.441406 25.984375 22.382812 26.03125 22.324219 C 26.316406 21.925781 26.5625 21.511719 26.804688 21.089844 C 26.835938 21.035156 26.867188 20.984375 26.902344 20.925781 C 26.929688 20.875 26.957031 20.824219 26.988281 20.773438 C 27.015625 20.726562 27.039062 20.683594 27.066406 20.636719 C 27.125 20.515625 27.160156 20.40625 27.1875 20.273438 C 26.957031 20.355469 26.75 20.46875 26.535156 20.585938 C 25.894531 20.9375 25.238281 21.203125 24.550781 21.445312 C 24.503906 21.460938 24.460938 21.480469 24.410156 21.496094 C 22.507812 22.183594 20.148438 22.34375 18.164062 21.914062 C 18.078125 21.898438 18.078125 21.898438 17.992188 21.878906 C 16.765625 21.621094 15.636719 21.214844 14.53125 20.625 C 14.472656 20.59375 14.414062 20.566406 14.355469 20.535156 C 13.410156 20.035156 12.550781 19.367188 11.777344 18.632812 C 11.746094 18.605469 11.714844 18.574219 11.683594 18.546875 C 10.140625 17.089844 9.097656 15.246094 8.4375 13.242188 C 8.414062 13.171875 8.390625 13.101562 8.363281 13.027344 C 8.003906 11.875 7.894531 10.636719 7.890625 9.433594 C 7.890625 9.386719 7.890625 9.339844 7.890625 9.292969 C 7.890625 8.445312 7.96875 7.628906 8.144531 6.796875 C 8.152344 6.753906 8.164062 6.710938 8.171875 6.667969 C 8.226562 6.414062 8.300781 6.164062 8.378906 5.917969 C 8.390625 5.875 8.40625 5.835938 8.417969 5.792969 C 8.707031 4.863281 9.078125 3.875 9.628906 3.070312 C 9.738281 2.941406 9.738281 2.941406 9.726562 2.8125 C 8.847656 2.8125 7.492188 4.078125 6.855469 4.628906 Z M 6.855469 4.628906 "/>
<path style=" stroke:none;fill-rule:nonzero;fill:rgb(3.137255%,2.745098%,0%);fill-opacity:1;" d="M 16.816406 8.992188 C 16.855469 8.992188 16.894531 8.992188 16.933594 8.992188 C 17.105469 9.039062 17.171875 9.121094 17.285156 9.257812 C 17.359375 9.441406 17.359375 9.441406 17.429688 9.65625 C 17.699219 10.476562 17.699219 10.476562 18.273438 11.078125 C 18.800781 11.28125 19.394531 11.289062 19.953125 11.289062 C 20.171875 11.308594 20.277344 11.355469 20.449219 11.484375 C 20.542969 11.675781 20.542969 11.863281 20.507812 12.070312 C 20.402344 12.210938 20.316406 12.300781 20.183594 12.414062 C 20.117188 12.476562 20.050781 12.539062 19.984375 12.601562 C 19.878906 12.695312 19.773438 12.792969 19.664062 12.886719 C 19.242188 13.234375 19.242188 13.234375 19.007812 13.707031 C 19.019531 13.875 19.054688 14.019531 19.101562 14.179688 C 19.117188 14.269531 19.132812 14.363281 19.144531 14.453125 C 19.160156 14.539062 19.175781 14.625 19.191406 14.710938 C 19.363281 15.6875 19.363281 15.6875 19.183594 15.96875 C 19.007812 16.074219 18.894531 16.101562 18.691406 16.113281 C 18.535156 16.054688 18.402344 15.992188 18.253906 15.910156 C 18.214844 15.890625 18.175781 15.871094 18.132812 15.847656 C 17.921875 15.738281 17.714844 15.621094 17.507812 15.503906 C 17.46875 15.484375 17.429688 15.460938 17.390625 15.4375 C 17.3125 15.394531 17.238281 15.351562 17.164062 15.308594 C 17.050781 15.242188 17.050781 15.242188 16.875 15.175781 C 16.652344 15.246094 16.453125 15.359375 16.246094 15.46875 C 16.183594 15.503906 16.121094 15.535156 16.054688 15.570312 C 15.921875 15.640625 15.792969 15.714844 15.660156 15.785156 C 15.597656 15.816406 15.53125 15.851562 15.46875 15.886719 C 15.410156 15.917969 15.351562 15.949219 15.292969 15.980469 C 15.09375 16.0625 14.921875 16.097656 14.707031 16.113281 C 14.535156 16.035156 14.441406 15.992188 14.355469 15.820312 C 14.320312 15.386719 14.390625 14.972656 14.472656 14.546875 C 14.496094 14.429688 14.515625 14.3125 14.539062 14.195312 C 14.546875 14.144531 14.558594 14.09375 14.566406 14.042969 C 14.605469 13.789062 14.605469 13.789062 14.589844 13.535156 C 14.484375 13.40625 14.390625 13.304688 14.269531 13.195312 C 14.203125 13.132812 14.136719 13.070312 14.070312 13.007812 C 13.964844 12.90625 13.855469 12.808594 13.75 12.710938 C 13.648438 12.617188 13.546875 12.519531 13.445312 12.425781 C 13.414062 12.394531 13.382812 12.367188 13.347656 12.335938 C 13.175781 12.171875 13.105469 12.054688 13.101562 11.824219 C 13.125 11.601562 13.125 11.601562 13.210938 11.460938 C 13.527344 11.257812 13.882812 11.246094 14.253906 11.25 C 14.953125 11.253906 14.953125 11.253906 15.550781 10.933594 C 15.886719 10.496094 16.082031 9.957031 16.265625 9.441406 C 16.382812 9.179688 16.511719 8.988281 16.816406 8.992188 Z M 16.816406 8.992188 "/>
<path style=" stroke:none;fill-rule:nonzero;fill:rgb(97.254902%,83.137256%,0%);fill-opacity:1;" d="M 2.460938 12.421875 C 2.5 12.421875 2.539062 12.421875 2.578125 12.421875 C 2.578125 12.457031 2.578125 12.492188 2.578125 12.527344 C 2.527344 15.734375 3.238281 18.875 5.15625 21.503906 C 5.179688 21.535156 5.203125 21.570312 5.230469 21.605469 C 5.527344 22.011719 5.847656 22.394531 6.195312 22.765625 C 6.308594 22.890625 6.417969 23.015625 6.527344 23.144531 C 7.082031 23.78125 7.757812 24.289062 8.4375 24.785156 C 8.472656 24.8125 8.507812 24.835938 8.542969 24.863281 C 11.359375 26.925781 14.867188 27.566406 18.28125 27.304688 C 18.261719 27.363281 18.242188 27.421875 18.222656 27.480469 C 18.082031 27.507812 17.941406 27.535156 17.800781 27.5625 C 17.761719 27.570312 17.726562 27.574219 17.683594 27.582031 C 17.550781 27.609375 17.417969 27.632812 17.285156 27.65625 C 17.203125 27.671875 17.203125 27.671875 17.121094 27.6875 C 16.570312 27.785156 16.027344 27.796875 15.46875 27.796875 C 15.421875 27.796875 15.371094 27.796875 15.320312 27.796875 C 12.09375 27.785156 8.957031 26.632812 6.574219 24.433594 C 6.457031 24.328125 6.339844 24.226562 6.21875 24.125 C 4.1875 22.351562 2.894531 19.664062 2.402344 17.050781 C 2.394531 17.011719 2.386719 16.972656 2.378906 16.933594 C 2.253906 16.257812 2.199219 15.601562 2.203125 14.914062 C 2.203125 14.765625 2.203125 14.617188 2.203125 14.46875 C 2.203125 13.796875 2.265625 13.140625 2.402344 12.480469 C 2.421875 12.460938 2.441406 12.441406 2.460938 12.421875 Z M 2.460938 12.421875 "/>
<path style=" stroke:none;fill-rule:nonzero;fill:rgb(92.156863%,76.47059%,0%);fill-opacity:1;" d="M 16.757812 10.605469 C 16.796875 10.605469 16.835938 10.605469 16.875 10.605469 C 16.890625 10.640625 16.90625 10.675781 16.925781 10.710938 C 17 10.867188 17.074219 11.023438 17.148438 11.179688 C 17.175781 11.234375 17.199219 11.289062 17.226562 11.34375 C 17.371094 11.644531 17.371094 11.644531 17.585938 11.894531 C 17.847656 11.984375 18.113281 12.019531 18.386719 12.050781 C 18.472656 12.0625 18.472656 12.0625 18.5625 12.074219 C 18.703125 12.09375 18.84375 12.113281 18.984375 12.128906 C 18.777344 12.382812 18.5625 12.605469 18.316406 12.820312 C 18.070312 13.066406 18.070312 13.066406 18.003906 13.390625 C 18.015625 13.5 18.03125 13.605469 18.046875 13.710938 C 18.058594 13.796875 18.066406 13.882812 18.074219 13.96875 C 18.101562 14.214844 18.132812 14.460938 18.164062 14.707031 C 17.828125 14.605469 17.550781 14.445312 17.25 14.265625 C 16.96875 14.144531 16.738281 14.117188 16.453125 14.230469 C 16.320312 14.296875 16.191406 14.367188 16.0625 14.445312 C 15.972656 14.492188 15.886719 14.542969 15.796875 14.589844 C 15.761719 14.613281 15.722656 14.636719 15.683594 14.660156 C 15.585938 14.707031 15.585938 14.707031 15.46875 14.707031 C 15.519531 14.109375 15.519531 14.109375 15.558594 13.882812 C 15.570312 13.828125 15.578125 13.769531 15.585938 13.710938 C 15.59375 13.648438 15.59375 13.648438 15.605469 13.582031 C 15.625 13.351562 15.628906 13.1875 15.496094 12.992188 C 15.375 12.859375 15.25 12.742188 15.117188 12.625 C 15.027344 12.542969 14.941406 12.460938 14.851562 12.378906 C 14.8125 12.34375 14.773438 12.308594 14.734375 12.269531 C 14.707031 12.242188 14.675781 12.214844 14.648438 12.1875 C 14.648438 12.167969 14.648438 12.148438 14.648438 12.128906 C 14.6875 12.121094 14.726562 12.117188 14.769531 12.109375 C 14.949219 12.082031 15.128906 12.054688 15.308594 12.027344 C 15.402344 12.011719 15.402344 12.011719 15.496094 12 C 15.554688 11.988281 15.617188 11.980469 15.679688 11.96875 C 15.734375 11.960938 15.789062 11.953125 15.847656 11.941406 C 16.074219 11.871094 16.183594 11.738281 16.304688 11.535156 C 16.328125 11.492188 16.347656 11.449219 16.367188 11.40625 C 16.390625 11.359375 16.414062 11.3125 16.4375 11.265625 C 16.460938 11.214844 16.484375 11.167969 16.507812 11.117188 C 16.546875 11.042969 16.546875 11.042969 16.582031 10.96875 C 16.640625 10.847656 16.699219 10.726562 16.757812 10.605469 Z M 16.757812 10.605469 "/>
<path style=" stroke:none;fill-rule:nonzero;fill:rgb(4.705882%,3.921569%,0%);fill-opacity:1;" d="M 11.484375 6.914062 C 11.617188 7.011719 11.730469 7.117188 11.847656 7.234375 C 11.953125 7.34375 11.953125 7.34375 12.128906 7.324219 C 12.242188 7.234375 12.242188 7.234375 12.351562 7.117188 C 12.507812 6.976562 12.574219 6.917969 12.785156 6.875 C 12.996094 6.925781 13.09375 6.988281 13.242188 7.148438 C 13.3125 7.351562 13.320312 7.453125 13.234375 7.648438 C 13.113281 7.808594 12.976562 7.949219 12.832031 8.085938 C 12.898438 8.253906 12.964844 8.335938 13.097656 8.460938 C 13.265625 8.636719 13.300781 8.722656 13.300781 8.964844 C 13.21875 9.132812 13.140625 9.242188 13.007812 9.375 C 12.824219 9.40625 12.824219 9.40625 12.597656 9.375 C 12.464844 9.277344 12.351562 9.171875 12.234375 9.054688 C 12.128906 8.945312 12.128906 8.945312 11.953125 8.964844 C 11.859375 9.054688 11.859375 9.054688 11.765625 9.171875 C 11.613281 9.328125 11.519531 9.40625 11.296875 9.414062 C 11.074219 9.375 11.074219 9.375 10.929688 9.28125 C 10.816406 9.109375 10.785156 8.996094 10.78125 8.789062 C 10.886719 8.546875 11.058594 8.382812 11.25 8.203125 C 11.171875 8.027344 11.082031 7.910156 10.945312 7.773438 C 10.800781 7.609375 10.78125 7.578125 10.773438 7.34375 C 10.902344 6.960938 11.082031 6.839844 11.484375 6.914062 Z M 11.484375 6.914062 "/>
<path style=" stroke:none;fill-rule:nonzero;fill:rgb(5.882353%,4.705882%,0%);fill-opacity:1;" d="M 21.304688 16.898438 C 21.550781 16.898438 21.65625 16.996094 21.828125 17.167969 C 21.894531 17.246094 21.964844 17.324219 22.03125 17.402344 C 22.058594 17.378906 22.085938 17.355469 22.113281 17.328125 C 22.152344 17.296875 22.1875 17.265625 22.226562 17.234375 C 22.28125 17.1875 22.28125 17.1875 22.335938 17.140625 C 22.488281 17.011719 22.585938 16.9375 22.785156 16.910156 C 23.015625 16.9375 23.105469 16.996094 23.261719 17.167969 C 23.332031 17.371094 23.339844 17.472656 23.253906 17.667969 C 23.132812 17.828125 22.996094 17.96875 22.851562 18.105469 C 22.917969 18.273438 22.984375 18.355469 23.117188 18.480469 C 23.285156 18.65625 23.320312 18.742188 23.320312 18.984375 C 23.238281 19.152344 23.160156 19.261719 23.027344 19.394531 C 22.84375 19.425781 22.84375 19.425781 22.617188 19.394531 C 22.484375 19.296875 22.371094 19.191406 22.253906 19.074219 C 22.148438 18.964844 22.148438 18.964844 21.972656 18.984375 C 21.878906 19.074219 21.878906 19.074219 21.785156 19.1875 C 21.632812 19.347656 21.539062 19.425781 21.316406 19.433594 C 21.09375 19.394531 21.09375 19.394531 20.949219 19.300781 C 20.835938 19.128906 20.804688 19.015625 20.800781 18.808594 C 20.90625 18.566406 21.078125 18.402344 21.269531 18.222656 C 21.203125 18.054688 21.136719 17.972656 21.003906 17.847656 C 20.835938 17.671875 20.800781 17.585938 20.800781 17.34375 C 20.925781 17.082031 21.015625 16.949219 21.304688 16.898438 Z M 21.304688 16.898438 "/>
<path style=" stroke:none;fill-rule:nonzero;fill:rgb(29.803923%,25.882354%,0%);fill-opacity:1;" d="M 6.269531 3.808594 C 6.308594 3.828125 6.347656 3.847656 6.386719 3.867188 C 5.789062 4.464844 5.1875 5.066406 4.570312 5.683594 C 4.570312 5.476562 4.597656 5.457031 4.734375 5.3125 C 4.785156 5.253906 4.785156 5.253906 4.839844 5.199219 C 4.878906 5.15625 4.917969 5.117188 4.957031 5.074219 C 4.996094 5.035156 5.035156 4.992188 5.078125 4.949219 C 5.457031 4.550781 5.859375 4.175781 6.269531 3.808594 Z M 6.269531 3.808594 "/>
<path style=" stroke:none;fill-rule:nonzero;fill:rgb(86.274511%,73.333335%,0%);fill-opacity:1;" d="M 2.519531 11.835938 C 2.539062 11.835938 2.558594 11.835938 2.578125 11.835938 C 2.578125 12.03125 2.578125 12.222656 2.578125 12.421875 C 2.519531 12.441406 2.460938 12.460938 2.402344 12.480469 C 2.410156 12.382812 2.417969 12.289062 2.429688 12.191406 C 2.433594 12.136719 2.4375 12.082031 2.441406 12.027344 C 2.460938 11.894531 2.460938 11.894531 2.519531 11.835938 Z M 2.519531 11.835938 "/>
</g>
</svg>
